<svg xmlns="http://www.w3.org/2000/svg" width="92" height="20" viewBox="0 0 92 20"><g fill="none" fill-rule="evenodd"><g fill="#FFF" fill-rule="nonzero"><path d="M.5 19.31V0h11.94v1.9H2.82v6.73h8.8v1.88h-8.8v6.9h9.62v1.9zM42.2 19.64a6.3 6.3 0 0 1-5.82-3.46 8.16 8.16 0 0 1-.86-3.82c0-1.47.28-2.75.84-3.84A6.2 6.2 0 0 1 38.73 6c1.02-.61 2.2-.91 3.52-.91 1.36 0 2.52.3 3.48.9.95.61 1.68 1.4 2.19 2.4.5.98.76 2.06.76 3.23v.58l-.03.7h-11.4v-1.8h9.14a4.1 4.1 0 0 0-1.26-2.98 4.18 4.18 0 0 0-2.93-1.08c-.78 0-1.5.18-2.18.54-.68.36-1.23.89-1.63 1.57-.4.7-.6 1.55-.6 2.58v.78c0 1.14.2 2.1.61 2.87a4.26 4.26 0 0 0 3.8 2.31 4.2 4.2 0 0 0 2.41-.65 3.74 3.74 0 0 0 1.4-1.77h2.28a5.94 5.94 0 0 1-3.24 3.8c-.82.39-1.77.58-2.85.58ZM58.03 19.64c-1.3 0-2.48-.3-3.52-.9a6.4 6.4 0 0 1-2.44-2.56 7.89 7.89 0 0 1-.88-3.8c0-1.47.3-2.74.88-3.83a6.52 6.52 0 0 1 5.96-3.47c1.66 0 3.03.42 4.14 1.28 1.1.85 1.8 2 2.1 3.43h-2.38a3.1 3.1 0 0 0-1.35-2.01A4.47 4.47 0 0 0 58 7.06a4.24 4.24 0 0 0-3.82 2.37c-.41.8-.62 1.77-.62 2.93 0 .86.12 1.63.36 2.3.24.67.56 1.23.97 1.67A4.3 4.3 0 0 0 58 17.68c.65 0 1.25-.1 1.79-.31a3.45 3.45 0 0 0 2.1-2.45h2.36a5.7 5.7 0 0 1-2.1 3.41 6.47 6.47 0 0 1-4.13 1.31ZM73.75 19.64a6.8 6.8 0 0 1-3.47-.9 6.33 6.33 0 0 1-2.43-2.53 7.95 7.95 0 0 1-.88-3.82c0-1.5.3-2.79.9-3.88a6.4 6.4 0 0 1 2.45-2.54c1.04-.6 2.2-.9 3.49-.9a6.46 6.46 0 0 1 5.94 3.43c.6 1.1.9 2.39.9 3.86a7.8 7.8 0 0 1-.9 3.85 6.52 6.52 0 0 1-6 3.43Zm.03-1.98a4.32 4.32 0 0 0 3.86-2.38c.43-.79.64-1.76.64-2.92 0-1.18-.2-2.16-.62-2.94a4.34 4.34 0 0 0-1.63-1.76 4.34 4.34 0 0 0-6.07 1.77 6.23 6.23 0 0 0-.62 2.93c0 1.16.2 2.13.62 2.92a4.24 4.24 0 0 0 3.82 2.37ZM83.9 19.31V5.41H86l.17 2.65a5.06 5.06 0 0 1 2.97-2.62 7.18 7.18 0 0 1 2.35-.36V7.5h-.85c-.6 0-1.15.08-1.69.24a3.42 3.42 0 0 0-2.39 2.18c-.22.6-.34 1.34-.34 2.22v7.17h-2.31Z"></path></g><path d="M28.57 4.83 25.7 7.7a3.89 3.89 0 0 1-5.5 0l-2.87-2.87-1.96 1.96 2.87 2.87a3.89 3.89 0 0 1 0 5.5l-2.87 2.88L17.32 20l2.87-2.87a3.89 3.89 0 0 1 5.5 0L28.55 20l1.98-1.96-2.86-2.89a3.89 3.89 0 0 1 0-5.5l2.86-2.86-1.96-1.96Z" fill="#C8F8A9"></path></g></svg>